<svg width="1920" height="490" viewBox="0 0 1920 490" fill="none" xmlns="http://www.w3.org/2000/svg">
<g clip-path="url(#clip0_1540_954)">
<mask id="mask0_1540_954" style="mask-type:alpha" maskUnits="userSpaceOnUse" x="0" y="0" width="1920" height="490">
<rect width="1920" height="490" fill="#C4C4C4"/>
</mask>
<g mask="url(#mask0_1540_954)">
<path fill-rule="evenodd" clip-rule="evenodd" d="M1105 0C1105 0 1139.09 244.23 1461.37 172.857C1783.65 101.484 1920 242 1920 242V0H1105Z" fill="#EEEEEE"/>
<path opacity="0.5" d="M1367.31 386.817C1051.66 496.879 1025 490 1025 480.498V490H1920C1867.29 409.747 1682.95 276.755 1367.31 386.817Z" fill="#E9FAF0"/>
<path fill-rule="evenodd" clip-rule="evenodd" d="M1078.21 499C1078.21 499 797.074 214.896 447.499 362.534C97.9232 510.173 2.39611e-05 330.612 2.39611e-05 330.612V496.606L1078.21 499Z" fill="#BFE9D3"/>
<path d="M970.5 307C966.9 300.6 952.333 292.667 945.5 289.5L955.5 278L971 289.5L970.5 307Z" fill="#187C48"/>
<circle cx="1147" cy="373" r="61" fill="#6DBA92"/>
<circle cx="1025" cy="202" r="102" fill="#D0E7DA"/>
<path d="M955.236 426.243C939.159 434.053 920.346 432.797 903.386 434.975C903.386 434.975 882.62 417.302 876.131 415.401C869.642 413.5 871.756 414.365 871.756 414.365C871.756 414.365 865.238 413.054 863.51 415.401C862.329 416.961 863.255 419.95 865.72 420.147C869.602 420.462 877.666 424.043 877.666 424.043L883.893 430.019C883.893 430.019 864.775 428.459 863.51 430.019C863.028 430.622 869.265 438.53 873.828 438.962C878.39 439.395 881.889 438.962 881.889 438.962C881.889 438.962 883.424 439.495 889.183 452.283C896.22 454.302 963 461 963 461L955.236 426.243Z" fill="#C1653D"/>
<path d="M965.499 251.672C965.499 251.672 951.72 230.892 941.041 221.985C930.362 213.077 902.668 174.003 900.687 170.533C898.706 167.064 882.011 126.512 878.542 127.004C875.073 127.497 878.542 137.388 878.542 137.388C878.542 137.388 881.938 174.003 885.924 180.929C889.91 187.856 896.812 194.783 899.777 195.767C899.777 195.767 912.633 240.39 925.994 255.425C939.355 270.459 944.793 275.418 944.793 275.418C944.793 275.418 960.553 250.688 965.499 251.672Z" fill="#C1653D"/>
<path d="M1013.39 498.988C1013.39 498.988 1022.77 492.196 1022.77 450.095C1022.77 450.095 969.644 470.776 963.185 465.818C956.725 460.86 937.964 430.373 956.799 417.331C961.081 414.354 977.64 418.328 977.64 418.328C977.64 418.328 995.517 404.425 997.005 404.425C998.494 404.425 987.077 371.662 988.565 368.18C990.054 364.699 997.498 356.763 1003.46 340.388L943 279.5L965.5 244.5C971.393 244.5 1008.1 288.628 1031.23 301.19L1081.01 306C1081.01 306 1122.98 329.475 1133.03 423.286C1133.86 431.099 1145.42 471.084 1151.95 498.988" fill="#187C48"/>
<path d="M1100.25 409.888C1100.25 409.888 1070.36 432.477 1036.61 442.898" stroke="#231F20" stroke-miterlimit="10"/>
<path d="M996.501 362.226C979.117 373.151 1008.52 374.147 1008.52 374.147V390.523" stroke="#231F20" stroke-miterlimit="10"/>
<path d="M1056.4 315.635C1053.45 316.795 1050.37 314.227 1050.96 311.111C1052.35 303.743 1054.21 293.152 1053.75 291.47C1053.07 289.045 1037.16 279.54 1034.79 274.202C1034.46 273.442 1034.36 272.593 1034.35 271.762C1034.32 266.486 1040.79 257.916 1042.87 257.575C1042.87 257.575 1037.26 250.845 1043.99 249.726C1048.19 248.999 1052.31 247.87 1056.29 246.354C1056.29 246.354 1055.91 235.515 1071.24 234.051C1071.24 234.051 1096.86 234.209 1075.5 266L1077 268.832C1077 268.832 1090.37 268.417 1088.5 276.5C1086.63 284.583 1080.59 285.233 1079.1 287.09L1080.96 305.976L1056.4 315.635Z" fill="#C1653D"/>
<path d="M1054 340C1055 347.5 1053 366.5 1037 382.5" stroke="black"/>
</g>
<path d="M841.65 516.43C871.054 516.43 894.89 492.594 894.89 463.19C894.89 433.786 871.054 409.95 841.65 409.95C812.246 409.95 788.41 433.786 788.41 463.19C788.41 492.594 812.246 516.43 841.65 516.43Z" fill="#242F37"/>
<path d="M1152.54 295.516C1180.43 291.914 1200.12 266.386 1196.51 238.497C1192.91 210.608 1167.38 190.92 1139.5 194.522C1111.61 198.123 1091.92 223.651 1095.52 251.54C1099.12 279.429 1124.65 299.118 1152.54 295.516Z" fill="#242F37"/>
<path d="M1078.52 289.415L1080.18 302.191C1089.55 301.414 1110.46 292.642 1106.95 263.806C1103.44 234.97 1079.73 232.184 1067.73 234.487C1089.69 243.595 1071.99 262.352 1070.87 265.668C1069.64 269.321 1074.68 270.34 1078.48 269.691C1081.89 269.109 1085.46 269.678 1086.6 273.691C1088.37 279.888 1084.29 282.259 1080.79 284.371C1079.06 285.42 1078.26 287.404 1078.52 289.415Z" fill="#242F37"/>
<circle cx="847" cy="154" r="26" fill="#242F37"/>
<path d="M961.263 246.048L937.088 271.663C931.387 277.703 934.18 287.64 942.193 289.825L952 292.5L983 259L971.578 246.194C968.847 243.132 964.08 243.064 961.263 246.048Z" fill="#1C7245"/>
<path d="M1107 240C1111.37 259.506 1128.69 294.957 1163 280.709C1150.72 281.345 1122.34 274.094 1107 240Z" fill="#26594A"/>
<path d="M1093 256.5C1097.83 260.5 1104.6 272.6 1093 289C1100.83 282.5 1111.8 266.9 1093 256.5Z" fill="#26594A"/>
<path d="M988 462C976.8 448.4 976.167 427.333 977.5 419L958.5 416.5C939.3 429.7 952.833 454.5 963 466C965.603 466.976 968.444 467.122 971.133 466.418L988 462Z" fill="#206842" fill-opacity="0.5"/>
<path d="M977.5 418.5C976 423.167 975.4 434.7 979 443.5" stroke="black"/>
<path d="M898.772 308.132C899.132 307.347 899.015 306.425 898.47 305.752L889.224 294.344L893.359 280.292C893.603 279.464 893.354 278.567 892.718 277.979C892.082 277.392 891.169 277.215 890.362 277.523L876.681 282.754L864.578 274.437C863.865 273.947 862.936 273.903 862.182 274.324C861.429 274.746 860.981 275.559 861.028 276.422L861.819 291.062L850.203 299.974C849.519 300.499 849.193 301.369 849.363 302.217C849.459 302.697 849.705 303.122 850.051 303.442C850.317 303.688 850.643 303.872 851.006 303.969L865.176 307.788L870.101 321.613C870.228 321.969 870.44 322.279 870.706 322.527C871.629 323.377 873.064 323.322 873.914 322.403C874.032 322.275 874.132 322.137 874.215 321.992L882.115 309.815L896.771 309.448C897.636 309.427 898.411 308.916 898.772 308.132Z" fill="#6DBA92"/>
</g>
<defs>
<clipPath id="clip0_1540_954">
<rect width="1920" height="490" fill="white"/>
</clipPath>
</defs>
</svg>
