<svg width="1920" height="490" viewBox="0 0 1920 490" fill="none" xmlns="http://www.w3.org/2000/svg">
<mask id="mask0_1078_950" style="mask-type:alpha" maskUnits="userSpaceOnUse" x="0" y="0" width="1920" height="490">
<rect width="1920" height="490" fill="#C4C4C4"/>
</mask>
<g mask="url(#mask0_1078_950)">
<path fill-rule="evenodd" clip-rule="evenodd" d="M1105 0C1105 0 1139.09 243.238 1461.37 172.154C1783.65 101.071 1920 241.016 1920 241.016V0H1105Z" fill="#EEEEEE"/>
<path opacity="0.5" d="M1391.39 387.817C1089.5 497.879 1064 491 1064 481.498V491H1920C1869.59 410.747 1693.28 277.755 1391.39 387.817Z" fill="#FCCCC1"/>
<path fill-rule="evenodd" clip-rule="evenodd" d="M1072.18 491C1072.18 491 792.621 209.631 444.999 355.848C97.3762 502.065 0 324.234 0 324.234V488.629L1072.18 491Z" fill="#F7694A" fill-opacity="0.34"/>
<circle cx="1141.96" cy="259.031" r="75.9195" fill="#F3C3B8" fill-opacity="0.79"/>
<circle cx="1306.44" cy="400.898" r="58.5598" fill="#F7BAAC"/>
<path d="M1108.68 357.218C1108.68 357.218 1097.94 392.524 1129.44 484.418L1131.72 383.458L1108.68 357.218Z" fill="#D69367"/>
<path d="M1159.66 278.597C1159.66 278.597 1163.91 293.872 1146.6 310.174C1129.29 326.477 1160.12 343.559 1160.12 343.559L1199.88 291.247L1170.6 273.479L1159.66 278.597Z" fill="#5C292F"/>
<path d="M1101.78 477.611H1099.32C1099.41 477.803 1099.48 477.976 1099.58 478.168L1101.78 477.611Z" fill="#D69367"/>
<path d="M1125.01 489.998C1124.49 413.886 1124.7 351.032 1134.35 331.821C1138.81 322.884 1148.55 316.834 1159.65 316.018L1172.72 314.209C1215.48 310.908 1239.89 321.022 1261.28 327.95C1271.19 331.163 1278.07 343.411 1279.39 351.901L1273.4 352.489L1286.32 395.826L1266.15 430.207L1255.75 424.544L1249.54 477.741L1132.43 486.74" fill="#F7694A"/>
<path d="M1300.39 490.177H1099.08L1238.28 454.248L1233.23 424.025L1292.2 400.712L1300.66 489.272C1300.69 489.432 1300.69 489.597 1300.64 489.754C1300.59 489.911 1300.51 490.056 1300.39 490.177Z" fill="#D69367"/>
<path d="M1225.77 423.702L1298.08 411.717L1278.3 347.248L1211.47 395.605L1225.77 423.702Z" fill="#F7694A"/>
<path d="M1156.68 316.418C1156.68 316.418 1110.71 323.625 1108.68 358.369L1132.01 388.418L1156.68 316.418Z" fill="#F7694A"/>
<path d="M1220.04 397.058L1227.66 424.898L1297.54 410.87" stroke="#5C292F" stroke-width="1.5" stroke-miterlimit="10"/>
<path d="M1173.67 299.983C1173.67 299.983 1165.94 313.271 1166.64 319.18C1167.61 327.429 1176.75 334.503 1199.42 323.388L1203.74 319.278L1194.25 293.254L1173.67 299.983Z" fill="#D69367"/>
<path d="M1179.18 226.812C1179.18 226.812 1157.19 223.299 1157.23 244.919C1157.65 246.69 1157.61 248.537 1157.12 250.289C1156.64 252.042 1155.72 253.643 1154.45 254.946C1154.45 254.946 1144.63 264.332 1150.51 267.114C1153.15 268.361 1143.92 284.382 1161.3 285.785C1170.38 286.516 1175.62 294.333 1173.5 299.973C1171.67 304.856 1183.22 305.721 1195.33 298.036C1210.15 288.638 1215.24 236.04 1215.24 236.04L1179.18 226.812Z" fill="#D69367"/>
<path d="M1173.41 283.166C1173.41 283.166 1182.68 296.721 1171.24 310.122L1184.23 308.289L1191.04 280.958L1173.41 283.166Z" fill="#D69367"/>
<path d="M1239.42 259.634C1198.38 181.215 1145.16 227.399 1154.13 238.033C1166.76 250.919 1185.48 241.319 1185.48 241.319C1168.43 270.335 1196.62 251.323 1200.34 261.382C1203.75 270.614 1193.74 271.706 1190.2 277.224C1175.19 300.7 1212.88 346.817 1234.69 346.526C1266.86 346.103 1267.11 328.097 1259.58 307.684C1247.01 273.676 1239.42 259.634 1239.42 259.634Z" fill="#5C292F"/>
<path d="M1135.56 373.967L1108.68 358.178L1125 470.978L1135.56 373.967Z" fill="#D69367"/>
<g opacity="0.7">
<path d="M1169.16 230.499C1161.52 236.93 1159.56 232.099 1160.52 230.499C1172.04 213.699 1196.04 220.579 1202.76 227.139C1195.08 219.939 1178.28 222.819 1169.16 230.499Z" fill="#D9506C" fill-opacity="0.3"/>
<path d="M1192.2 242.499C1188.2 246.979 1183.37 255.267 1196.04 252.579C1211.88 249.219 1188.36 254.019 1192.2 242.499Z" fill="#8B3C37"/>
<path d="M1202.58 232.907C1215.9 238.94 1242.3 259 1241.35 290.971C1236.76 276.114 1222.6 243.701 1202.58 232.907Z" fill="#8B3C37"/>
</g>
<path d="M1203.98 365.96C1216.81 348.851 1203.27 324.614 1194.89 314.634L1260.65 310.891C1297.01 408.197 1187.94 387.345 1203.98 365.96Z" fill="#5C292F"/>
<circle cx="1217.35" cy="222.141" r="17.6433" fill="#5C292F"/>
<circle cx="962.385" cy="222.377" r="44.7657" fill="#FDE5DF"/>
<mask id="mask1_1078_950" style="mask-type:alpha" maskUnits="userSpaceOnUse" x="850" y="156" width="387" height="335">
<rect x="850" y="156.747" width="386.492" height="333.716" fill="#C4C4C4"/>
</mask>
<g mask="url(#mask1_1078_950)">
<path opacity="0.5" d="M1031.37 420.396C935.996 496.29 927.939 491.547 927.939 484.995V491.547H1198.37C1182.45 436.207 1126.75 344.502 1031.37 420.396Z" fill="#F7694A" fill-opacity="0.31"/>
<path d="M969.408 237.556V227.005C969.41 225.048 969.847 223.116 970.689 221.348C973.536 215.407 981.905 203.499 1001.24 206.469C1026.71 210.401 1017.15 224.261 1017.15 224.261" fill="#5C292F"/>
<path d="M955.658 313.109C955.658 313.109 971.23 252.265 970.547 250.879C968.697 247.089 965.423 249.578 966.163 239.734C966.732 231.927 970.006 234.331 977.721 232.776C978.494 236.349 986.112 223.589 985.436 222.564C985.237 218.463 1017.78 223.158 1017.78 223.158L1019.83 270.481C1018 272.493 1015.78 274.108 1013.29 275.222C1010.81 276.337 1008.12 276.929 1005.39 276.959L1014.1 320.124" fill="#D69367"/>
<path d="M1099.38 411.153C1104.87 441.344 1073.96 487.142 1071.36 492.325L905.939 496.375C898.543 459.329 885.834 372.405 888.472 356.944C888.472 329.117 904.489 284.035 962.219 287.388C999.105 320.95 1008.62 293.251 1008.62 293.251C1045.74 286.354 1084.59 368.978 1099.38 411.153Z" fill="#F7694A"/>
<path d="M952.5 416H893L904.5 490H1035V462L955.5 447L952.5 416Z" fill="#D69367"/>
<path d="M951.139 393.951L955.986 446.715L1044.63 463.958" stroke="#231F20" stroke-miterlimit="10"/>
<path d="M1007.76 199.289C977.807 197.041 967.909 218.187 968.484 234.279L984.677 213.02L1017.62 222.554C1028.19 220.044 1032.86 201.173 1007.76 199.289Z" fill="#5C292F"/>
<path d="M965.682 241.888C965.682 246.361 968.924 249.715 970.545 250.833C975.533 248.97 983.789 242.41 976.905 231.08C968.301 216.917 965.682 236.298 965.682 241.888Z" fill="#D69367"/>
<path d="M985.72 251.077L981.264 230.831H976.762C976.762 230.831 975.7 256.31 975.899 263.777C975.907 264.07 975.918 264.353 975.933 264.628C976.048 270.605 981.402 281.94 1002.73 279.457C1010.65 278.535 1013.47 277.408 1018.16 274.769C1025.48 270.656 1029.81 257.346 1017.78 250.935C1007.95 245.08 985.72 251.077 985.72 251.077Z" fill="#5C292F"/>
<path d="M1197.13 378.36H1034.38V490.095H1197.13V378.36Z" fill="#2D2D2D"/>
<g clip-path="url(#clip0_1078_950)">
<path d="M1123.39 433.973L1128.39 427.353C1128.48 427.267 1128.54 427.152 1128.56 427.027C1128.59 426.901 1128.57 426.772 1128.52 426.657C1128.47 426.542 1128.38 426.448 1128.27 426.388C1128.17 426.329 1128.05 426.308 1127.93 426.327H1127C1126.86 426.326 1126.73 426.359 1126.61 426.422C1126.5 426.485 1126.39 426.578 1126.31 426.692L1121.22 433.311L1122.03 431.16C1122.06 431.098 1122.07 431.03 1122.07 430.961C1122.07 430.892 1122.06 430.824 1122.03 430.762L1120.22 426.658C1120.19 426.533 1120.11 426.424 1120.01 426.347C1119.91 426.27 1119.79 426.228 1119.67 426.228H1110.69C1109.83 426.222 1108.97 426.407 1108.18 426.772C1107.39 427.136 1106.68 427.673 1106.09 428.346C1104.65 430.308 1103.85 432.71 1103.79 435.197C1103.53 436.459 1103.64 437.775 1104.1 438.97C1104.46 439.752 1105.03 440.407 1105.73 440.858C1106.42 441.31 1107.23 441.539 1108.05 441.519H1112.77C1112.98 441.519 1113.18 441.433 1113.33 441.278C1113.48 441.124 1113.57 440.914 1113.58 440.691L1114.7 434.337C1114.7 433.84 1114.7 433.344 1114.04 433.344H1110.28C1110.23 433.339 1110.17 433.347 1110.12 433.367C1110.07 433.386 1110.02 433.417 1109.98 433.458C1109.94 433.498 1109.9 433.547 1109.88 433.601C1109.86 433.656 1109.85 433.715 1109.85 433.774C1109.87 434.195 1110.03 434.595 1110.3 434.908C1110.56 435.221 1110.92 435.428 1111.31 435.495C1112.02 435.495 1111.99 435.992 1111.93 436.455L1111.53 439.003C1111.51 439.053 1111.48 439.096 1111.44 439.126C1111.41 439.156 1111.36 439.171 1111.31 439.169C1108.2 439.169 1105.59 439.698 1106.18 435.164C1106.62 432.682 1106.59 430.2 1109.07 429.008C1110.48 428.55 1111.96 428.404 1113.42 428.578C1113.86 428.591 1114.3 428.429 1114.63 428.124C1114.97 427.818 1115.19 427.391 1115.25 426.923C1116.07 427.066 1116.84 427.403 1117.51 427.907C1118.18 428.411 1118.74 429.07 1119.14 429.836C1119.79 431.06 1120.32 432.384 1120.88 433.675L1115.81 440.294C1115.73 440.366 1115.66 440.456 1115.61 440.559C1115.56 440.662 1115.54 440.775 1115.53 440.89C1115.53 441.043 1115.57 441.193 1115.66 441.31C1115.76 441.427 1115.89 441.502 1116.03 441.519H1117.24C1117.39 441.518 1117.54 441.478 1117.67 441.403C1117.8 441.328 1117.91 441.22 1117.99 441.088L1121.87 435.958L1123.98 440.724C1124.17 441.121 1124.33 441.519 1124.76 441.519H1125.66C1125.81 441.529 1125.95 441.49 1126.07 441.406C1126.2 441.323 1126.29 441.2 1126.34 441.055C1126.4 440.948 1126.42 440.829 1126.42 440.708C1126.42 440.587 1126.4 440.468 1126.34 440.36L1123.39 433.973Z" fill="#FE927B"/>
</g>
<path opacity="0.3" d="M998 201C1010.02 202.833 1030.47 208.8 1016.04 218C1016.58 213.667 1013.74 204.2 998 201Z" fill="#F7694A"/>
</g>
</g>
<circle cx="1289" cy="293" r="14" fill="#F7694A"/>
<path d="M1226.39 232.948C1219.83 233.002 1206.8 229.343 1207.1 214.282C1208.78 218.757 1214.97 228.756 1226.39 232.948Z" fill="#77313C"/>
<path d="M893.5 416H953" stroke="black"/>
<defs>
<clipPath id="clip0_1078_950">
<rect width="26.4442" height="16.3469" fill="white" transform="translate(1102.64 426.228)"/>
</clipPath>
</defs>
</svg>
