<svg width="29" height="18" viewBox="0 0 29 18" fill="none" xmlns="http://www.w3.org/2000/svg">
<path d="M22.7609 8.52787L28.2456 1.23927C28.3421 1.14381 28.4073 1.0177 28.4317 0.879546C28.4561 0.741389 28.4384 0.598454 28.3812 0.471886C28.3239 0.345318 28.2302 0.241801 28.1138 0.176554C27.9974 0.111308 27.8644 0.0877793 27.7345 0.109491H26.7126C26.5669 0.108045 26.4231 0.143672 26.2928 0.213366C26.1625 0.283061 26.0495 0.384831 25.9632 0.510367L20.3762 7.79897L21.262 5.4302C21.2948 5.36266 21.3119 5.28767 21.3119 5.21155C21.3119 5.13542 21.2948 5.06043 21.262 4.9929L19.286 0.473944C19.2432 0.336166 19.1609 0.216308 19.0509 0.13129C18.9408 0.0462716 18.8086 0.000379048 18.6729 0.000166868H8.82751C7.88182 -0.00667885 6.94509 0.197179 6.07705 0.598727C5.20902 1.00028 4.42876 1.59072 3.78569 2.33252C2.20984 4.4922 1.32594 7.13731 1.26479 9.87625C0.983112 11.2661 1.10181 12.7146 1.60537 14.0307C2.00138 14.8911 2.61909 15.6123 3.38564 16.1095C4.1522 16.6067 5.03571 16.8591 5.93192 16.8369H11.1099C11.3391 16.8371 11.5594 16.7422 11.7246 16.5724C11.8897 16.4025 11.9869 16.1707 11.9957 15.9258L13.2221 8.92875C13.2221 8.3821 13.2222 7.83545 12.5068 7.83545H8.38463C8.32367 7.83042 8.2625 7.83893 8.20477 7.86047C8.14704 7.88202 8.09404 7.91612 8.04924 7.96062C8.00444 8.00512 7.9688 8.05906 7.94445 8.11905C7.92009 8.17904 7.90746 8.24377 7.90764 8.30917C7.93313 8.77279 8.10578 9.21329 8.39689 9.55784C8.68801 9.90238 9.08027 10.1304 9.50889 10.2042C10.2924 10.2042 10.2584 10.7509 10.1903 11.2611L9.74738 14.0672C9.73226 14.1216 9.70054 14.1691 9.65735 14.2021C9.61415 14.2351 9.56193 14.2518 9.50889 14.2494C6.10221 14.2494 3.24052 14.8325 3.88779 9.83982C4.36472 7.1066 4.33063 4.37337 7.05597 3.06142C8.59888 2.557 10.2221 2.39575 11.8254 2.58765C12.3113 2.60155 12.7849 2.42339 13.1557 2.08723C13.5265 1.75107 13.7684 1.2805 13.8352 0.765495C14.7248 0.923122 15.5698 1.29332 16.3071 1.84856C17.0443 2.40381 17.6549 3.12982 18.0936 3.9725C18.809 5.32089 19.3883 6.77857 20.0015 8.19984L14.4486 15.4884C14.3562 15.5675 14.2807 15.6672 14.2278 15.7804C14.1749 15.8937 14.1456 16.0179 14.1419 16.1444C14.1322 16.3127 14.1835 16.4784 14.285 16.6073C14.3865 16.7362 14.5303 16.8185 14.6869 16.8369H16.0156C16.1777 16.8358 16.3373 16.7919 16.4799 16.7093C16.6224 16.6267 16.7437 16.5078 16.8331 16.3631L21.0915 10.7144L23.4082 15.9622C23.6126 16.3995 23.7829 16.8369 24.2599 16.8369H25.2477C25.4072 16.8484 25.566 16.8052 25.7008 16.7134C25.8356 16.6216 25.9393 16.4861 25.9971 16.3267C26.0539 16.2083 26.0836 16.0771 26.0836 15.944C26.0836 15.8109 26.0539 15.6798 25.9971 15.5613L22.7609 8.52787Z" fill="#F7694A"/>
</svg>
