<svg width="1920" height="490" viewBox="0 0 1920 490" fill="none" xmlns="http://www.w3.org/2000/svg">
<mask id="mask0_1482_915" style="mask-type:alpha" maskUnits="userSpaceOnUse" x="0" y="0" width="1920" height="490">
<rect width="1920" height="490" fill="#C4C4C4"/>
</mask>
<g mask="url(#mask0_1482_915)">
<path fill-rule="evenodd" clip-rule="evenodd" d="M1105 0C1105 0 1139.09 244.23 1461.37 172.857C1783.65 101.484 1920 242 1920 242V0H1105Z" fill="#EEEEEE"/>
<path fill-rule="evenodd" clip-rule="evenodd" d="M1025 492C1025 492 757.739 211.07 425.415 357.059C93.0908 503.048 0 325.494 0 325.494V489.633L1025 492Z" fill="#EBC2CA"/>
<path opacity="0.5" d="M1367.31 386.817C1051.66 496.879 1025 490 1025 480.498V490H1920C1867.29 409.747 1682.95 276.755 1367.31 386.817Z" fill="#F4E0E4"/>
<circle cx="1121" cy="255" r="96" fill="#EECCD3"/>
<circle cx="1242" cy="397" r="61" fill="#EA9FAD"/>
<path d="M1036 351.5C1036 351.5 1024.81 388.277 1057.62 484L1060 378.833L1036 351.5Z" fill="#D69367"/>
<path d="M1089.11 269.602C1089.11 269.602 1093.53 285.514 1075.5 302.496C1057.46 319.478 1089.58 337.272 1089.58 337.272L1131 282.779L1100.5 264.272L1089.11 269.602Z" fill="#5C292F"/>
<path d="M1028.81 476.91H1026.25C1026.34 477.11 1026.42 477.29 1026.52 477.49L1028.81 476.91Z" fill="#D69367"/>
<path d="M1053.18 490C1052.6 410.624 1052.83 345.074 1063.58 325.04C1068.56 315.718 1079.42 309.41 1091.79 308.558L1106.36 306.672C1154.03 303.229 1181.24 313.777 1205.09 321.002C1216.13 324.353 1223.81 337.126 1225.28 345.98L1218.6 346.594L1233 391.789L1210.52 427.645L1198.93 421.74L1192 477.218L1061.45 486.603" fill="#D9506C"/>
<path d="M1235.69 490H1026L1171 452.574L1165.74 421.091L1225.74 346L1235.98 489.057C1236.01 489.223 1236.01 489.395 1235.96 489.559C1235.91 489.723 1235.82 489.874 1235.69 490Z" fill="#D69367"/>
<path d="M1165.85 421L1246 408.465L1220.92 336L1150 391.612L1165.85 421Z" fill="#D9506C"/>
<path d="M1086 309C1086 309 1038.12 316.507 1036 352.699L1060.3 384L1086 309Z" fill="#D9506C"/>
<path d="M1152 393L1159.94 422L1246 408.758" stroke="#5C292F" stroke-width="1.5" stroke-miterlimit="10"/>
<path d="M1103.69 291.879C1103.69 291.879 1095.64 305.722 1096.37 311.877C1097.38 320.469 1106.9 327.838 1130.52 316.26L1135.02 311.979L1125.13 284.87L1103.69 291.879Z" fill="#D69367"/>
<path d="M1109.44 215.66C1109.44 215.66 1086.53 212.001 1086.57 234.522C1087 236.366 1086.97 238.29 1086.46 240.115C1085.95 241.941 1085 243.609 1083.67 244.966C1083.67 244.966 1073.45 254.744 1079.57 257.641C1082.32 258.94 1072.71 275.629 1090.81 277.09C1100.27 277.852 1105.73 285.995 1103.52 291.869C1101.61 296.956 1113.65 297.857 1126.26 289.852C1141.69 280.062 1147 225.272 1147 225.272L1109.44 215.66Z" fill="#D69367"/>
<path d="M1103.43 274.362C1103.43 274.362 1113.08 288.482 1101.17 302.442L1114.7 300.532L1121.79 272.062L1103.43 274.362Z" fill="#D69367"/>
<path d="M1172.19 249.85C1129.44 168.163 1074 216.272 1083.34 227.348C1096.5 240.772 1116 230.772 1116 230.772C1098.24 260.997 1127.6 241.192 1131.48 251.671C1135.03 261.287 1124.61 262.425 1120.92 268.173C1105.28 292.627 1144.54 340.665 1167.26 340.362C1200.77 339.921 1210.02 311.201 1202.18 289.937C1189.08 254.512 1172.19 249.85 1172.19 249.85Z" fill="#5C292F"/>
<path d="M1237.7 348.645C1240.08 317.957 1215.05 290.994 1181.8 288.423C1148.55 285.851 1119.67 308.644 1117.3 339.333C1114.92 370.021 1139.95 396.984 1173.2 399.556C1206.45 402.127 1235.33 379.334 1237.7 348.645Z" fill="#5C292F"/>
<path d="M1210.73 280.996C1212.18 262.302 1196.93 245.876 1176.67 244.31C1156.42 242.743 1138.82 256.628 1137.38 275.323C1135.93 294.017 1151.18 310.442 1171.44 312.009C1191.69 313.576 1209.29 299.691 1210.73 280.996Z" fill="#5C292F"/>
<path d="M1064 368.947L1036 352.5L1053 470L1064 368.947Z" fill="#D69367"/>
<rect x="941" y="389" width="154" height="101" fill="#1E1013"/>
<rect x="1242" y="279" width="31" height="31" fill="#D9506C"/>
<g opacity="0.7">
<path d="M1099 219.5C1091.04 226.199 1089 221.167 1090 219.5C1102 202 1127 209.167 1134 216C1126 208.5 1108.5 211.5 1099 219.5Z" fill="#D9506C" fill-opacity="0.3"/>
<path d="M1123 232C1118.83 236.667 1113.8 245.3 1127 242.5C1143.5 239 1119 244 1123 232Z" fill="#823541"/>
<path d="M1130.5 224.5C1145 229.167 1174.7 246.8 1177.5 280C1171 265.167 1152.5 233.3 1130.5 224.5Z" fill="#823541"/>
</g>
</g>
</svg>
