<svg width="52" height="29" viewBox="0 0 52 29" fill="none" xmlns="http://www.w3.org/2000/svg">
<path d="M51.6764 13.6461L38.3527 0.322452C37.9384 -0.0918589 37.2053 -0.0918589 36.791 0.322452L33.9024 3.21103C33.471 3.64246 33.471 4.34182 33.9024 4.77325L43.557 14.4267L33.903 24.0818C33.4716 24.5132 33.4716 25.2126 33.903 25.644L36.7916 28.5326C36.9987 28.7397 37.2799 28.8569 37.5727 28.8569C37.8649 28.8569 38.1466 28.7397 38.3538 28.5326L51.6764 15.2095C52.1078 14.7775 52.1078 14.0776 51.6764 13.6461Z" fill="#EBEBFE"/>
<path d="M18.097 24.082L8.44407 14.428L18.0986 4.77452C18.3058 4.56736 18.4223 4.28674 18.4223 3.9934C18.4223 3.70062 18.3063 3.41945 18.0986 3.21229L15.21 0.323715C15.0029 0.11656 14.7217 0 14.4289 0C14.1361 0 13.855 0.11656 13.6478 0.323715L0.323577 13.6463C-0.107859 14.0777 -0.107859 14.7771 0.323577 15.2091L13.6473 28.5322C13.8544 28.7394 14.1356 28.8565 14.4284 28.8565C14.7212 28.8565 15.0023 28.7394 15.2095 28.5322L18.0981 25.6436C18.5295 25.2128 18.5295 24.5134 18.097 24.082Z" fill="#EBEBFE"/>
</svg>
