<svg width="31" height="31" viewBox="0 0 31 31" fill="none" xmlns="http://www.w3.org/2000/svg">
<g clip-path="url(#clip0_788_436)">
<path d="M30.6859 15.0347L22.7742 7.12299C22.5282 6.87697 22.0929 6.87697 21.8469 7.12299L20.1316 8.83825C19.8754 9.09444 19.8754 9.50973 20.1316 9.76592L25.8645 15.4982L20.1319 21.2315C19.8757 21.4877 19.8757 21.903 20.1319 22.1592L21.8472 23.8744C21.9702 23.9974 22.1372 24.067 22.311 24.067C22.4845 24.067 22.6518 23.9974 22.7748 23.8744L30.6859 15.963C30.9421 15.7065 30.9421 15.2909 30.6859 15.0347Z" fill="#6C48C9"/>
<path d="M10.7461 21.2317L5.01416 15.4991L10.7471 9.76679C10.8701 9.64378 10.9393 9.47714 10.9393 9.30296C10.9393 9.1291 10.8705 8.96214 10.7471 8.83913L9.03186 7.12387C8.90885 7.00085 8.74188 6.93164 8.56802 6.93164C8.39417 6.93164 8.2272 7.00085 8.10419 7.12387L0.192143 15.0349C-0.0640476 15.2911 -0.0640476 15.7064 0.192143 15.9629L8.10386 23.8743C8.22687 23.9973 8.39384 24.0669 8.5677 24.0669C8.74155 24.0669 8.90852 23.9973 9.03153 23.8743L10.7468 22.1591C11.003 21.9032 11.003 21.4879 10.7461 21.2317Z" fill="#6C48C9"/>
</g>
<defs>
<clipPath id="clip0_788_436">
<rect width="31" height="31" fill="white"/>
</clipPath>
</defs>
</svg>
