<svg width="192" height="145" viewBox="0 0 192 145" fill="none" xmlns="http://www.w3.org/2000/svg">
<rect y="93" width="52" height="52" fill="#FA3263"/>
<rect x="140" width="52" height="52" fill="#FA3263"/>
<path d="M168.881 13.0001L11 29.2041L21.2588 129.159L179.139 112.955L168.881 13.0001Z" fill="#F9E8E7"/>
<path d="M143.404 28.2135L110.079 31.6338C108.931 31.7516 108.096 32.778 108.213 33.9263C108.331 35.0745 109.358 35.9098 110.506 35.7919L143.831 32.3717C144.979 32.2538 145.814 31.2274 145.696 30.0792C145.579 28.931 144.552 28.0956 143.404 28.2135Z" fill="white"/>
<path d="M111.722 99.2859L33.8613 107.277C32.7131 107.395 31.8778 108.421 31.9956 109.57C32.1135 110.718 33.1399 111.553 34.2881 111.435L112.149 103.444C113.297 103.326 114.133 102.3 114.015 101.152C113.897 100.003 112.871 99.168 111.722 99.2859Z" fill="white"/>
<path d="M68.715 86.8163L68.0196 80.3214L51.9654 82.0404L51.6764 79.3419L63.2923 54.3189L72.3943 53.3443L74.6324 74.2469L78.9319 73.7865L79.5 79.0922L75.2005 79.5525L75.896 86.0474L68.715 86.8163ZM58.8069 75.9414L67.5887 75.0011L65.948 59.6787L58.8069 75.9414ZM97.162 78.4038C101.644 77.9239 103.515 74.223 102.774 67.3013L102.617 65.8376C102.261 62.514 101.409 60.0299 100.061 58.3854C98.7436 56.7376 96.9565 56.0346 94.7001 56.2762C90.0958 56.7692 88.1609 60.4461 88.8955 67.3069L89.062 68.862C89.7966 75.7228 92.4966 78.9034 97.162 78.4038ZM97.601 84.2322C93.2406 84.6991 89.6262 83.6366 86.758 81.0445C83.8897 78.4525 82.1895 74.6714 81.6573 69.7011L81.4908 68.146C80.9586 63.1757 81.8502 59.1171 84.1656 55.97C86.4811 52.8229 89.7733 51.0209 94.0422 50.5638C98.3416 50.1034 101.937 51.1371 104.83 53.6649C107.722 56.1927 109.436 59.9569 109.971 64.9577L110.133 66.467C110.668 71.4678 109.812 75.5689 107.564 78.7705C105.343 81.9382 102.022 83.7588 97.601 84.2322ZM130.221 80.2306L129.525 73.7357L113.471 75.4547L113.182 72.7561L124.798 47.7332L133.9 46.7586L136.138 67.6611L140.438 67.2008L141.006 72.5064L136.706 72.9668L137.402 79.4617L130.221 80.2306ZM120.313 69.3556L129.095 68.4153L127.454 53.0929L120.313 69.3556Z" fill="#FA3263"/>
</svg>
