<svg width="43" height="41" viewBox="0 0 43 41" fill="none" xmlns="http://www.w3.org/2000/svg">
<path d="M42.9043 15.5185C42.6743 14.8123 42.0625 14.2975 41.3262 14.1909L28.838 12.3804L23.253 1.08746C22.9237 0.421613 22.244 0 21.5 0C20.7558 0 20.0762 0.421613 19.747 1.08746L14.1624 12.3802L1.67384 14.1908C0.937494 14.2975 0.325612 14.8123 0.0957159 15.5184C-0.13418 16.2247 0.0575303 16.9999 0.590435 17.5181L9.62714 26.307L7.49304 38.7195C7.36728 39.4514 7.66872 40.191 8.2707 40.6274C8.61124 40.8744 9.0146 41 9.41992 41C9.73101 41 10.0434 40.926 10.3295 40.7759L21.4999 34.9161L32.6701 40.7759C32.9579 40.9269 33.273 40.9988 33.5852 41C34.6636 40.9984 35.5373 40.1257 35.5373 39.0493C35.5373 38.8995 35.5204 38.7534 35.4883 38.6134L33.3727 26.3071L42.4094 17.5181C42.9425 16.9999 43.1342 16.2247 42.9043 15.5185Z" fill="#E9FAF0"/>
</svg>
