<svg width="1920" height="490" viewBox="0 0 1920 490" fill="none" xmlns="http://www.w3.org/2000/svg">
<mask id="mask0_1482_906" style="mask-type:alpha" maskUnits="userSpaceOnUse" x="0" y="0" width="1920" height="490">
<rect width="1920" height="490" fill="#C4C4C4"/>
</mask>
<g mask="url(#mask0_1482_906)">
<path fill-rule="evenodd" clip-rule="evenodd" d="M1105 0C1105 0 1139.09 243.238 1461.37 172.154C1783.65 101.071 1920 241.016 1920 241.016V0H1105Z" fill="#EEEEEE"/>
<path opacity="0.5" d="M1391.39 386.817C1089.5 496.879 1064 490 1064 480.498V490H1920C1869.59 409.747 1693.28 276.755 1391.39 386.817Z" fill="#FCCCC1"/>
<path fill-rule="evenodd" clip-rule="evenodd" d="M1072.18 490C1072.18 490 792.621 208.631 444.999 354.848C97.3762 501.065 0 323.234 0 323.234V487.629L1072.18 490Z" fill="#F7694A" fill-opacity="0.34"/>
<circle cx="1025.5" cy="188.037" r="50.5" fill="#FDE5DF"/>
<circle cx="1280" cy="292.537" r="96" fill="#EFB7A9"/>
<mask id="mask1_1482_906" style="mask-type:alpha" maskUnits="userSpaceOnUse" x="910" y="114" width="436" height="377">
<rect x="910" y="114" width="436" height="376.463" fill="#C4C4C4"/>
</mask>
<g mask="url(#mask1_1482_906)">
<path opacity="0.5" d="M1114.6 411.421C1007.01 497.036 997.922 491.685 997.922 484.294V491.685H1303C1285.03 429.257 1222.2 325.805 1114.6 411.421Z" fill="#F7694A" fill-opacity="0.31"/>
<path d="M1044.7 205.159V193.257C1044.71 191.05 1045.2 188.871 1046.15 186.875C1049.36 180.174 1058.8 166.74 1080.61 170.091C1109.35 174.526 1098.56 190.162 1098.56 190.162" fill="#92533C"/>
<path d="M1029.19 290.391C1029.19 290.391 1046.76 221.753 1045.99 220.189C1043.9 215.913 1040.21 218.721 1041.04 207.617C1041.69 198.81 1045.38 201.522 1054.08 199.767C1054.95 203.798 1063.55 189.404 1062.78 188.248C1062.56 183.621 1099.27 188.918 1099.27 188.918L1101.58 242.303C1099.52 244.572 1097.01 246.393 1094.21 247.651C1091.41 248.909 1088.37 249.576 1085.3 249.61L1095.12 298.304" fill="#D69367"/>
<path d="M1191.33 400.994C1197.52 435.053 1162.65 486.716 1159.72 492.563L973.105 497.132C964.761 455.341 950.424 357.283 953.4 339.841C953.4 308.449 971.469 257.593 1036.59 261.376C1078.21 299.237 1088.94 267.989 1088.94 267.989C1130.81 260.209 1174.64 353.417 1191.33 400.994Z" fill="#F7694A"/>
<path d="M1024.09 381.588L1029.56 441.111L1129.56 460.562" stroke="#231F20" stroke-width="2" stroke-miterlimit="10"/>
<path d="M1301.59 364H1118V490.048H1301.59V364Z" fill="#2D2D2D"/>
<g clip-path="url(#clip0_1482_906)">
<path d="M1218.41 426.737L1224.06 419.27C1224.15 419.172 1224.22 419.043 1224.25 418.901C1224.27 418.76 1224.25 418.613 1224.19 418.483C1224.14 418.354 1224.04 418.248 1223.92 418.181C1223.8 418.114 1223.66 418.09 1223.53 418.112H1222.48C1222.33 418.111 1222.18 418.147 1222.05 418.219C1221.91 418.29 1221.8 418.394 1221.71 418.523L1215.96 425.99L1216.87 423.563C1216.91 423.494 1216.92 423.417 1216.92 423.339C1216.92 423.261 1216.91 423.184 1216.87 423.115L1214.84 418.486C1214.79 418.344 1214.71 418.222 1214.6 418.135C1214.48 418.047 1214.35 418 1214.21 418H1204.08C1203.11 417.993 1202.14 418.202 1201.25 418.613C1200.36 419.025 1199.56 419.63 1198.89 420.39C1197.27 422.602 1196.36 425.312 1196.3 428.118C1196.01 429.542 1196.13 431.026 1196.65 432.374C1197.06 433.256 1197.69 433.995 1198.48 434.504C1199.27 435.013 1200.18 435.272 1201.1 435.249H1206.43C1206.66 435.249 1206.89 435.152 1207.06 434.978C1207.23 434.804 1207.33 434.567 1207.34 434.316L1208.6 427.147C1208.6 426.587 1208.6 426.027 1207.87 426.027H1203.62C1203.56 426.022 1203.5 426.031 1203.44 426.053C1203.38 426.075 1203.33 426.11 1203.28 426.156C1203.23 426.201 1203.2 426.256 1203.17 426.318C1203.15 426.379 1203.13 426.446 1203.13 426.513C1203.16 426.988 1203.34 427.439 1203.64 427.792C1203.94 428.145 1204.34 428.378 1204.78 428.454C1205.59 428.454 1205.55 429.014 1205.48 429.537L1205.03 432.412C1205.01 432.467 1204.98 432.516 1204.93 432.55C1204.89 432.584 1204.84 432.601 1204.78 432.598C1201.28 432.598 1198.33 433.196 1199 428.081C1199.49 425.281 1199.45 422.48 1202.26 421.136C1203.85 420.62 1205.52 420.454 1207.16 420.651C1207.66 420.665 1208.15 420.483 1208.53 420.138C1208.91 419.794 1209.16 419.312 1209.23 418.784C1210.15 418.946 1211.02 419.325 1211.77 419.894C1212.53 420.463 1213.16 421.206 1213.61 422.07C1214.35 423.451 1214.94 424.945 1215.57 426.401L1209.86 433.868C1209.77 433.949 1209.69 434.051 1209.64 434.167C1209.58 434.283 1209.55 434.41 1209.55 434.54C1209.54 434.712 1209.59 434.882 1209.69 435.014C1209.8 435.146 1209.95 435.23 1210.11 435.249H1211.47C1211.64 435.248 1211.81 435.203 1211.95 435.119C1212.1 435.034 1212.22 434.912 1212.32 434.764L1216.7 428.977L1219.08 434.353C1219.29 434.801 1219.46 435.249 1219.96 435.249H1220.97C1221.14 435.261 1221.3 435.217 1221.44 435.123C1221.58 435.029 1221.68 434.89 1221.74 434.727C1221.8 434.605 1221.83 434.471 1221.83 434.334C1221.83 434.198 1221.8 434.064 1221.74 433.942L1218.41 426.737Z" fill="#FE927B"/>
</g>
<path d="M1087.97 161.991C1054.18 159.455 1043.01 183.31 1043.66 201.464L1061.93 177.48L1099.09 188.236C1111.01 185.405 1116.28 164.116 1087.97 161.991Z" fill="#92533C"/>
<path d="M1040.5 210.047C1040.5 215.092 1044.16 218.876 1045.99 220.138C1051.61 218.035 1060.93 210.635 1053.16 197.854C1043.45 181.877 1040.5 203.74 1040.5 210.047Z" fill="#D69367"/>
<path d="M1063.11 220.412L1058.08 197.573H1053C1053 197.573 1051.8 226.315 1052.03 234.74C1052.03 235.07 1052.05 235.389 1052.06 235.699C1052.19 242.442 1058.23 255.229 1082.3 252.427C1091.23 251.388 1094.41 250.116 1099.7 247.139C1107.96 242.499 1112.84 227.485 1099.27 220.253C1088.19 213.647 1063.11 220.412 1063.11 220.412Z" fill="#92533C"/>
<path d="M1151.5 221L1171.85 256.25H1131.15L1151.5 221Z" fill="#F7694A"/>
</g>
<path opacity="0.3" d="M1079 166C1091.02 167.833 1111.47 173.8 1097.04 183C1097.58 178.667 1094.74 169.2 1079 166Z" fill="#F7694A"/>
</g>
<defs>
<clipPath id="clip0_1482_906">
<rect width="29.8315" height="18.4408" fill="white" transform="translate(1195 418)"/>
</clipPath>
</defs>
</svg>
