<svg width="1920" height="490" viewBox="0 0 1920 490" fill="none" xmlns="http://www.w3.org/2000/svg">
<mask id="mask0_1482_909" style="mask-type:alpha" maskUnits="userSpaceOnUse" x="0" y="0" width="1920" height="490">
<rect width="1920" height="490" fill="#C4C4C4"/>
</mask>
<g mask="url(#mask0_1482_909)">
<path fill-rule="evenodd" clip-rule="evenodd" d="M1105 0C1105 0 1139.09 244.23 1461.37 172.857C1783.65 101.484 1920 242 1920 242V0H1105Z" fill="#EEEEEE"/>
<path fill-rule="evenodd" clip-rule="evenodd" d="M917 491C917 491 677.899 249.374 380.591 374.938C83.2822 500.502 0 347.789 0 347.789V488.964L917 491Z" fill="#A54095" fill-opacity="0.5"/>
<path opacity="0.5" d="M1396.33 386.817C1097.26 496.879 1072 490 1072 480.498V490H1920C1870.06 409.747 1695.4 276.755 1396.33 386.817Z" fill="#F4E0E4"/>
<circle cx="1053" cy="229" r="96" fill="#F8EBF6"/>
<circle cx="1218.5" cy="447.5" r="42.5" fill="#E2B4DB"/>
<mask id="mask1_1482_909" style="mask-type:alpha" maskUnits="userSpaceOnUse" x="751" y="159" width="542" height="331">
<rect x="751" y="159" width="542" height="331" fill="#C4C4C4"/>
</mask>
<g mask="url(#mask1_1482_909)">
<path d="M1117.34 307.143C1108.63 293.951 1101.89 279.552 1097.35 264.405C1089.28 235.17 1086.1 209.554 1073.1 210.039C1051.3 210.856 1027.78 207.259 1028.9 248.872C1028.98 255.063 1031.2 261.034 1035.18 265.773C1039.22 270.451 1045.43 274.489 1054.18 271.929L1058.59 310.696" fill="#BF7852"/>
<path d="M1209.44 493.96L1035.14 465.144L1030.84 451.597H1011.13L980.691 404.711C988.472 372.938 990.258 365.525 991.206 351.227C993.145 321.816 1037.21 321.176 1050.41 309.99L1052.62 296.906L1105.68 284.439L1112.05 295.847C1122.32 297.523 1145.11 284.969 1156.97 294.346C1175.82 309.173 1193.35 380.683 1193.35 380.683" fill="#A54095"/>
<path d="M1028.75 428.937C1025.93 409.134 1024.65 389.144 1024.91 369.143H1026.41C1026.13 389.07 1027.41 408.988 1030.22 428.716L1028.75 428.937Z" fill="#241F20"/>
<path d="M1117.38 394.87L1111.19 315.572L1112.67 315.44L1118.73 393.105L1193.1 379.227L1193.37 380.683L1117.38 394.87Z" fill="#241F20"/>
<path d="M1030.84 451.597H1011.13C1011.13 451.597 926.838 317.955 918.792 318.551C910.746 319.146 923.201 335.805 923.201 335.805C923.201 335.805 890.598 310.563 886.278 315.484C886.278 315.484 871.509 308.71 878.276 322.875C885.043 337.04 912.73 353.765 917.668 360.384C922.606 367.003 968.126 474.919 971.19 476.154C974.254 477.39 1035.12 465.122 1035.12 465.122L1030.84 451.597Z" fill="#B4704F"/>
<path d="M904.42 342.446C890.135 332.275 876.909 315.241 876.909 315.065L877.703 314.469C877.835 314.624 890.929 331.569 905.059 341.564L904.42 342.446Z" fill="black"/>
<path d="M908.167 338.033C898.644 333.113 885.255 315.74 884.615 314.923L886.091 315.292C886.267 315.491 899.284 332.319 908.608 337.151L908.167 338.033Z" fill="black"/>
<path d="M911.055 334.084C903.912 328.545 892.897 316.568 892.699 316.414L893.467 316.03C893.621 316.184 904.53 327.817 911.628 333.289L911.055 334.084Z" fill="black"/>
<path d="M931.07 352.419C923.377 342.269 922.694 336.114 922.672 335.849H923.642C923.642 335.849 924.369 342.005 931.864 351.912L931.07 352.419Z" fill="black"/>
<path d="M974.408 469.844C962.583 469.901 950.817 468.16 939.513 464.681C933.238 462.448 926.383 462.459 920.114 464.711C913.846 466.964 908.549 471.319 905.125 477.037C902.039 483.127 915.53 493.872 915.53 493.872H975.048L974.408 469.844Z" fill="#BF7852"/>
<path d="M1145.29 443.808L964.312 469.447L967.619 493.96H1209.44C1210.42 493.958 1211.39 493.737 1212.27 493.313C1213.16 492.89 1213.94 492.275 1214.56 491.512C1215.17 490.75 1215.62 489.859 1215.85 488.905C1216.08 487.95 1216.1 486.956 1215.9 485.995L1193.24 380.683L1127.1 393.017L1145.29 443.808Z" fill="#BF7852"/>
<path d="M1025.81 220.652C1025.81 220.652 1030.99 203.001 1059.03 205.207C1059.03 205.207 1062.41 185.769 1079.47 192.366C1090.89 196.779 1083.37 212.599 1083.37 212.599C1083.37 212.599 1104.22 258.933 1183.73 247.306C1328.16 226.014 1271.03 404.534 1195.99 365.503C1195.99 365.503 1235.67 312.13 1182.26 310.078C1090.18 306.548 1086.32 275.371 1078.94 250.262V241.437C1078.94 241.437 1086.32 223.785 1075.99 224.447C1069.71 224.849 1068.06 230.461 1067.74 234.805C1067.66 235.899 1065.62 236.591 1064.94 235.73C1061.17 230.951 1054.21 224.007 1046.78 225.992C1035.71 228.948 1023.61 231.729 1025.81 220.652Z" fill="#F8A727"/>
<path d="M831.684 490.347L802 405.177H950.435L980.135 490.347H831.684Z" fill="#2D2D2D"/>
</g>
<circle cx="1182" cy="210" r="19" fill="#A54095"/>
<path opacity="0.7" d="M1086.98 242C1092.26 258.846 1108.48 279.259 1176.32 270.735C1179.94 270.28 1252.37 253.86 1243.98 314C1243.1 320.302 1242.67 324.641 1242.47 327.406C1242.74 332.046 1242.06 333.316 1242.47 327.406C1241.75 314.924 1234.16 278.056 1179.98 291C1114.38 306.672 1090.6 259.761 1086.98 242Z" fill="#A54095" fill-opacity="0.15"/>
<circle cx="1072" cy="203" r="15" fill="#F8A727"/>
</g>
</svg>
