<svg width="1920" height="490" viewBox="0 0 1920 490" fill="none" xmlns="http://www.w3.org/2000/svg">
<mask id="mask0_1482_912" style="mask-type:alpha" maskUnits="userSpaceOnUse" x="0" y="0" width="1920" height="490">
<rect width="1920" height="490" fill="#C4C4C4"/>
</mask>
<g mask="url(#mask0_1482_912)">
<path fill-rule="evenodd" clip-rule="evenodd" d="M1105 0C1105 0 1139.09 244.23 1461.37 172.857C1783.65 101.484 1920 242 1920 242V0H1105Z" fill="#EEEEEE"/>
<path fill-rule="evenodd" clip-rule="evenodd" d="M935 490C935 490 691.206 243.631 388.062 371.66C84.917 499.689 0 343.978 0 343.978V487.924L935 490Z" fill="#D3C9EF"/>
<path opacity="0.8" d="M1427.21 386.817C1145.77 496.879 1122 490 1122 480.498V490H1920C1873 409.747 1708.64 276.755 1427.21 386.817Z" fill="#EBEBFE"/>
<circle cx="1232" cy="348" r="61" fill="#D3C9EF"/>
<mask id="mask1_1482_912" style="mask-type:alpha" maskUnits="userSpaceOnUse" x="876" y="124" width="425" height="366">
<rect x="876" y="124" width="425" height="366" fill="#C4C4C4"/>
</mask>
<g mask="url(#mask1_1482_912)">
<rect x="917.703" y="444.778" width="204.416" height="109.934" fill="#DCDCDC"/>
<path d="M918.096 371.591C918.096 371.591 865.903 426.309 898.983 442.505C920.59 453.213 951.954 440.069 951.954 440.069" stroke="#919191" stroke-width="3" stroke-miterlimit="10"/>
<path d="M961.512 405.883L898.146 294.658C898.146 294.658 891.535 382.963 961.512 405.883Z" fill="#404040"/>
<path d="M987.424 446.98C988.657 444.811 988.872 443.499 987.049 441.786C985.789 440.581 958.553 433.969 945.203 431.212L941.825 446.605" fill="#404040"/>
<circle cx="1044.5" cy="286.5" r="84.5" fill="#DFDFF3"/>
<path fill-rule="evenodd" clip-rule="evenodd" d="M1087.44 200.049L1073.65 228.98L1098.02 240.683L1108.48 200.049C1108.48 200.049 1097.34 205.737 1087.44 200.049Z" fill="#D69367"/>
<path fill-rule="evenodd" clip-rule="evenodd" d="M1107.89 280.517L1094.38 254.557L1104.15 213.176C1104.15 213.176 1110.12 207.028 1115.42 204.195C1115.42 204.195 1144.23 269.723 1147.09 270.533C1147.09 270.533 1126.55 268.375 1107.89 280.517Z" fill="#D69367"/>
<mask id="mask2_1482_912" style="mask-type:alpha" maskUnits="userSpaceOnUse" x="1073" y="176" width="67" height="87">
<path fill-rule="evenodd" clip-rule="evenodd" d="M1139.16 176H1073.65V262.243H1139.16V176Z" fill="white"/>
</mask>
<g mask="url(#mask2_1482_912)">
<path fill-rule="evenodd" clip-rule="evenodd" d="M1077.94 230.965C1077.94 230.965 1067.36 261.388 1079.96 262.205C1092.56 263.023 1099.87 250.356 1101.9 240.957C1103.94 231.559 1100.28 212.763 1112.06 216.032C1123.85 219.301 1123.28 226.927 1112.06 232.705C1112.06 232.705 1132.98 248.258 1138.26 227.827C1143.55 207.396 1123.78 203.924 1123.78 203.924C1123.78 203.924 1128.29 188.234 1110 187.826C1091.71 187.416 1088.9 161.686 1079.96 187.429C1071.02 213.172 1104.23 202.956 1104.23 202.956C1104.23 202.956 1097.43 234.011 1094.59 234.829C1091.74 235.645 1077.94 230.965 1077.94 230.965Z" fill="#321E41"/>
</g>
<path fill-rule="evenodd" clip-rule="evenodd" d="M1284.28 511.851C1284.28 511.851 1251.36 327.035 1139 255.609C1139 255.609 1105.43 277.474 1102.52 289.135C1099.6 300.797 1082.09 351.815 1109.81 449.479L1124.32 511.851H1284.28Z" fill="#6C48C9"/>
<path fill-rule="evenodd" clip-rule="evenodd" d="M1217.73 415.657C1217.73 415.657 1154.91 425.887 1140.3 415.657L1147.35 440.502L982 488.5C982 488.5 985.562 486.605 957.194 507.73C942.107 518.965 927.001 488.731 940.149 493.116C953.297 497.5 963.99 480.038 989.557 512.191C989.557 512.191 1139.19 514.859 1204.58 507.73C1204.58 507.73 1234.71 510.131 1217.73 415.657Z" fill="#D69367"/>
<path d="M1139.5 414.5C1139.5 414.5 1116.5 330.5 1124.85 304.536" stroke="#4F3595" stroke-width="1.5"/>
</g>
<rect x="1171" y="226" width="31" height="31" fill="#6C48C9"/>
<path d="M1104.5 197.5C1084.5 201.5 1082.5 187.167 1084 179.5C1084.31 176.7 1087.46 176.333 1089 176.5C1084.6 188.5 1097.5 195.5 1104.5 197.5Z" fill="#6A43CE" fill-opacity="0.4"/>
<path d="M1119 211C1128.1 211.65 1142.99 216.561 1129.75 231C1131.68 225.472 1132.23 213.732 1119 211Z" fill="#6A43CE" fill-opacity="0.4"/>
</g>
</svg>
