<svg width="23" height="23" viewBox="0 0 23 23" fill="none" xmlns="http://www.w3.org/2000/svg">
<path d="M22.9487 8.83012C22.8257 8.45153 22.4985 8.17562 22.1046 8.11846L15.4249 7.14797L12.4376 1.09463C12.2615 0.737716 11.8979 0.511719 11.5 0.511719C11.1019 0.511719 10.7384 0.737716 10.5623 1.09463L7.57519 7.1479L0.895306 8.11839C0.501449 8.17562 0.174164 8.45153 0.0511967 8.83005C-0.0717703 9.20864 0.0307719 9.62418 0.315813 9.90197L5.14938 14.6131L4.00789 21.2665C3.94062 21.6588 4.10186 22.0553 4.42385 22.2892C4.606 22.4216 4.82175 22.4889 5.03854 22.4889C5.20494 22.4889 5.37203 22.4493 5.52504 22.3688L11.4999 19.2278L17.4747 22.3688C17.6286 22.4498 17.7971 22.4883 17.9641 22.4889C18.5409 22.4881 19.0083 22.0203 19.0083 21.4433C19.0083 21.363 18.9992 21.2847 18.9821 21.2096L17.8505 14.6131L22.684 9.90197C22.9691 9.62418 23.0717 9.20864 22.9487 8.83012Z" fill="#187C48"/>
</svg>
