<svg width="54" height="30" viewBox="0 0 54 30" fill="none" xmlns="http://www.w3.org/2000/svg">
<path d="M42.7369 15.1607L53.5171 2.20315C53.7068 2.03344 53.8349 1.80925 53.8829 1.56364C53.9309 1.31802 53.8961 1.06392 53.7836 0.838909C53.6711 0.613899 53.4869 0.429868 53.258 0.313874C53.0292 0.19788 52.7678 0.156052 52.5126 0.194651H50.5039C50.2176 0.19208 49.9349 0.255417 49.6788 0.379318C49.4227 0.503219 49.2007 0.684145 49.031 0.907319L38.0497 13.8648L39.7907 9.65368C39.8552 9.53363 39.8887 9.4003 39.8887 9.26497C39.8887 9.12964 39.8552 8.99632 39.7907 8.87626L35.9069 0.842567C35.8227 0.597628 35.661 0.384547 35.4447 0.233404C35.2284 0.0822606 34.9685 0.000673864 34.7017 0.000296654H15.3505C13.4917 -0.0118735 11.6506 0.35054 9.94444 1.0644C8.23831 1.77827 6.7047 2.82794 5.44074 4.1467C2.34337 7.98613 0.606058 12.6886 0.485849 17.5578C-0.0677859 20.0286 0.165512 22.6037 1.15527 24.9436C1.93365 26.473 3.14775 27.7553 4.65443 28.6392C6.16111 29.523 7.89768 29.9717 9.65918 29.9322H19.8366C20.287 29.9325 20.7201 29.764 21.0447 29.462C21.3693 29.1599 21.5603 28.748 21.5776 28.3125L23.9881 15.8733C23.9881 14.9015 23.9883 13.9297 22.5822 13.9297H14.48C14.3602 13.9207 14.24 13.9359 14.1265 13.9742C14.013 14.0125 13.9089 14.0731 13.8208 14.1522C13.7328 14.2313 13.6627 14.3272 13.6148 14.4339C13.567 14.5405 13.5421 14.6556 13.5425 14.7719C13.5926 15.5961 13.9319 16.3792 14.5041 16.9917C15.0763 17.6042 15.8473 18.0096 16.6898 18.1408C18.2298 18.1408 18.163 19.1127 18.029 20.0197L17.1585 25.0083C17.1288 25.1051 17.0665 25.1896 16.9816 25.2482C16.8967 25.3069 16.794 25.3364 16.6898 25.3323C9.99389 25.3323 4.36918 26.3689 5.6414 17.493C6.57883 12.634 6.51182 7.77488 11.8685 5.44253C14.9011 4.54577 18.0915 4.25911 21.2429 4.60026C22.1979 4.62498 23.1289 4.30825 23.8577 3.71063C24.5865 3.11302 25.0618 2.27645 25.1933 1.36088C26.9417 1.64111 28.6026 2.29923 30.0517 3.28634C31.5008 4.27344 32.7008 5.56413 33.5631 7.06222C34.9693 9.45936 36.108 12.0508 37.3132 14.5775L26.3989 27.535C26.2172 27.6756 26.0689 27.8528 25.9649 28.0541C25.8608 28.2555 25.8033 28.4762 25.7961 28.7012C25.777 29.0003 25.8778 29.2949 26.0773 29.5241C26.2767 29.7533 26.5594 29.8995 26.8672 29.9322H29.4787C29.7975 29.9302 30.1111 29.8523 30.3913 29.7054C30.6716 29.5586 30.9098 29.3472 31.0857 29.09L39.4555 19.0479L44.0091 28.3773C44.4109 29.1547 44.7457 29.9322 45.6831 29.9322H47.6247C47.9381 29.9528 48.2502 29.8758 48.5153 29.7127C48.7803 29.5495 48.9841 29.3086 49.0976 29.0252C49.2093 28.8147 49.2676 28.5814 49.2676 28.3449C49.2676 28.1083 49.2093 27.8751 49.0976 27.6646L42.7369 15.1607Z" fill="#F9E8E7"/>
</svg>
